<?xml version="1.0" encoding="UTF-8" standalone="no"?>
<!DOCTYPE svg PUBLIC "-//W3C//DTD SVG 1.1//EN" "http://www.w3.org/Graphics/SVG/1.1/DTD/svg11.dtd">
<svg xmlns="http://www.w3.org/2000/svg" version="1.1" viewBox="0.00 0.00 1235.00 405.00">
<g stroke-width="2.00" fill="none" stroke-linecap="butt">
<path stroke="#80a3c5" vector-effect="non-scaling-stroke" d="
  M 280.37 189.46
  C 288.88 192.72 289.87 200.55 292.59 208.56
  Q 292.78 209.11 293.28 208.81
  L 298.83 205.49
  Q 299.31 205.20 298.92 204.80
  C 297.36 203.19 295.17 201.75 293.95 200.20
  C 287.71 192.27 289.35 186.60 288.89 177.36
  C 288.75 174.42 288.04 168.07 290.32 165.81
  Q 305.62 150.58 324.86 159.23
  C 331.32 162.13 335.83 166.11 335.81 173.75
  C 335.77 185.84 336.46 197.13 325.02 204.70
  A 0.46 0.46 0.0 0 0 325.04 205.49
  C 331.89 209.54 335.33 212.10 339.76 219.39
  Q 343.75 225.96 347.88 232.37
  A 0.20 0.20 0.0 0 0 348.25 232.26
  L 348.25 132.74
  Q 348.25 132.03 348.95 132.02
  C 361.53 131.83 365.36 115.23 353.84 111.00
  Q 351.09 109.98 344.03 109.99
  Q 258.95 110.01 173.86 110.01
  C 168.42 110.01 164.90 110.56 161.98 114.95
  C 156.70 122.88 162.85 132.08 171.94 132.00
  Q 172.50 132.00 172.50 132.56
  Q 172.45 175.19 172.75 217.82
  C 172.79 224.90 172.21 235.42 172.68 244.27
  C 172.78 246.07 173.56 248.00 175.50 248.00
  Q 227.76 248.01 280.03 248.00
  A 0.72 0.72 0.0 0 0 280.75 247.28
  L 280.75 245.23
  Q 280.75 244.60 280.13 244.50
  C 271.01 243.10 268.19 237.76 265.86 228.93
  Q 263.34 219.40 260.69 209.87
  C 258.17 200.82 261.26 192.23 270.46 189.31
  Q 275.67 187.66 280.37 189.46"
/>
<path stroke="#80a3c5" vector-effect="non-scaling-stroke" d="
  M 541.72 193.48
  C 525.75 178.12 499.63 186.53 489.78 203.66
  C 483.28 214.95 482.07 229.31 487.23 241.27
  C 501.18 273.63 554.65 270.02 563.49 235.99
  Q 565.01 230.14 565.01 216.36
  Q 565.01 186.32 565.00 156.26
  Q 565.00 155.75 564.49 155.75
  L 542.75 155.75
  Q 542.25 155.75 542.25 156.25
  L 542.25 193.25
  Q 542.25 193.98 541.72 193.48"
/>
<path stroke="#80a3c5" vector-effect="non-scaling-stroke" d="
  M 295.24 169.49
  A 1.72 1.68 62.7 0 0 294.79 170.95
  Q 295.77 177.13 295.15 183.75
  C 292.91 207.84 330.86 209.51 329.33 182.28
  C 329.04 176.98 331.73 171.36 326.61 167.30
  C 317.03 159.70 303.95 160.37 295.24 169.49"
/>
<path stroke="#80a3c5" vector-effect="non-scaling-stroke" d="
  M 431.49 241.50
  A 0.49 0.49 0.0 0 1 431.00 241.01
  L 431.00 227.24
  A 0.49 0.49 0.0 0 1 431.49 226.75
  L 468.01 226.75
  A 0.49 0.49 0.0 0 0 468.50 226.26
  L 468.50 205.99
  A 0.49 0.49 0.0 0 0 468.01 205.50
  L 431.49 205.50
  A 0.49 0.49 0.0 0 1 431.00 205.01
  L 431.00 190.99
  A 0.49 0.49 0.0 0 1 431.49 190.50
  L 477.26 190.50
  A 0.49 0.49 0.0 0 0 477.75 190.01
  L 477.75 169.74
  A 0.49 0.49 0.0 0 0 477.26 169.25
  L 408.74 169.25
  A 0.49 0.49 0.0 0 0 408.25 169.74
  L 408.25 262.26
  A 0.49 0.49 0.0 0 0 408.74 262.75
  L 477.26 262.75
  A 0.49 0.49 0.0 0 0 477.75 262.26
  L 477.75 241.99
  A 0.49 0.49 0.0 0 0 477.26 241.50
  L 431.49 241.50"
/>
<path stroke="#80a3c5" vector-effect="non-scaling-stroke" d="
  M 738.52 169.25
  A 0.33 0.33 0.0 0 0 738.21 169.47
  L 714.70 235.89
  A 0.33 0.33 0.0 0 1 714.08 235.89
  L 690.41 169.47
  A 0.33 0.33 0.0 0 0 690.10 169.25
  L 665.98 169.25
  A 0.33 0.33 0.0 0 0 665.67 169.70
  L 702.83 262.54
  A 0.33 0.33 0.0 0 0 703.13 262.75
  L 725.57 262.75
  A 0.33 0.33 0.0 0 0 725.87 262.54
  L 763.12 169.70
  A 0.33 0.33 0.0 0 0 762.81 169.25
  L 738.52 169.25"
/>
<path stroke="#80a3c5" vector-effect="non-scaling-stroke" d="
  M 785.57 232.13
  Q 801.00 238.00 816.81 232.93
  C 828.68 229.12 837.54 219.65 834.68 206.34
  C 830.39 186.36 804.31 182.81 788.01 187.59
  C 772.32 192.20 762.90 204.08 761.16 220.00
  C 758.36 245.71 776.58 263.63 801.50 263.74
  Q 815.35 263.79 828.70 260.45
  Q 829.25 260.31 829.25 259.75
  L 829.25 239.77
  Q 829.25 239.28 828.77 239.36
  Q 817.08 241.20 805.25 241.54
  C 797.61 241.76 788.72 240.56 785.13 232.60
  Q 784.78 231.82 785.57 232.13"
/>
<path stroke="#80a3c5" vector-effect="non-scaling-stroke" d="
  M 894.52 186.12
  C 870.22 182.44 846.91 197.64 846.81 223.27
  Q 846.71 249.94 846.76 262.24
  A 0.51 0.51 0.0 0 0 847.27 262.75
  L 868.99 262.75
  Q 869.60 262.75 869.59 262.14
  Q 869.29 244.11 869.66 226.10
  C 869.98 210.88 880.60 205.43 894.72 208.42
  A 0.44 0.44 0.0 0 0 895.25 207.99
  L 895.25 186.98
  Q 895.25 186.23 894.52 186.12"
/>
<path stroke="#80a3c5" vector-effect="non-scaling-stroke" d="
  M 902.39 260.50
  C 920.43 264.23 968.03 270.12 969.35 239.99
  C 969.93 226.62 961.21 219.43 948.99 216.79
  Q 937.89 214.39 926.81 212.01
  Q 924.70 211.55 923.98 209.76
  A 0.69 0.69 0.0 0 1 924.18 208.97
  Q 926.52 207.06 928.00 206.99
  C 940.77 206.34 952.67 207.28 965.08 210.29
  Q 965.50 210.40 965.50 209.96
  L 965.50 189.54
  Q 965.50 189.09 965.05 188.99
  C 947.07 184.91 903.10 179.45 902.38 209.29
  C 902.10 221.21 910.47 230.03 921.74 232.09
  C 929.31 233.47 940.35 234.84 946.96 238.54
  A 0.99 0.98 9.9 0 1 947.45 239.23
  Q 947.83 241.58 945.76 241.86
  Q 924.83 244.66 902.22 239.14
  Q 901.75 239.03 901.75 239.52
  L 901.75 259.71
  Q 901.75 260.37 902.39 260.50"
/>
<path stroke="#80a3c5" vector-effect="non-scaling-stroke" d="
  M 1000.75 232.19
  Q 1017.99 238.63 1035.11 231.63
  C 1042.77 228.50 1049.35 222.18 1050.11 213.52
  C 1052.18 190.12 1024.75 182.39 1006.56 186.57
  C 984.97 191.53 973.95 208.82 976.39 230.29
  C 978.80 251.43 996.12 263.61 1016.50 263.71
  Q 1030.35 263.77 1043.82 260.51
  Q 1044.25 260.41 1044.25 259.97
  L 1044.25 239.81
  Q 1044.25 239.27 1043.72 239.35
  Q 1035.90 240.64 1028.01 241.12
  C 1018.90 241.66 1004.76 243.19 1000.32 232.63
  Q 1000.02 231.92 1000.75 232.19"
/>
<path stroke="#80a3c5" vector-effect="non-scaling-stroke" d="
  M 579.36 227.54
  C 581.01 275.24 655.39 275.72 656.89 226.72
  Q 657.50 206.80 657.18 186.72
  Q 657.17 186.25 656.70 186.25
  L 634.77 186.25
  A 0.55 0.55 0.0 0 0 634.22 186.80
  Q 634.36 206.64 634.09 226.05
  C 633.95 236.17 627.38 242.45 617.36 242.23
  C 605.46 241.96 602.04 232.28 602.03 221.80
  Q 601.99 204.30 602.00 186.76
  Q 602.00 186.25 601.49 186.25
  L 579.78 186.25
  Q 579.33 186.25 579.32 186.70
  Q 579.05 218.48 579.36 227.54"
/>
<path stroke="#80a3c5" vector-effect="non-scaling-stroke" d="
  M 286.97 238.78
  Q 287.07 249.01 286.97 259.26
  C 286.95 261.20 289.09 263.37 289.34 266.13
  Q 290.95 283.59 293.07 300.99
  Q 293.57 305.09 294.83 308.56
  A 2.18 2.18 0.0 0 0 296.86 309.99
  C 304.86 310.05 311.05 312.58 311.77 301.51
  Q 311.79 301.23 312.06 301.28
  Q 312.19 301.30 312.29 301.38
  Q 312.43 301.50 312.45 301.79
  C 313.13 312.53 319.25 310.02 326.77 309.99
  Q 329.11 309.98 329.67 307.71
  C 333.16 293.48 333.57 277.83 335.07 263.04
  A 1.81 1.81 0.0 0 1 337.92 261.74
  C 344.49 266.36 352.61 260.40 352.05 252.92
  Q 351.86 250.43 349.19 246.19
  Q 341.50 233.98 333.81 221.76
  C 325.32 208.27 310.04 205.17 297.11 213.88
  C 295.17 215.18 293.85 217.31 292.00 218.80
  A 1.99 1.98 61.3 0 1 288.87 217.88
  Q 286.56 211.00 284.31 203.69
  Q 282.83 198.87 280.88 197.05
  C 277.55 193.95 271.59 193.92 268.52 197.66
  C 265.62 201.20 265.66 204.18 266.92 208.85
  Q 269.93 220.03 273.09 231.15
  C 275.06 238.09 279.73 238.30 286.43 238.25
  Q 286.97 238.24 286.97 238.78"
/>
<path stroke="#80a3c5" vector-effect="non-scaling-stroke" d="
  M 354.25 120.95
  A 4.70 4.70 0.0 0 0 349.55 116.25
  L 171.19 116.25
  A 4.70 4.70 0.0 0 0 166.49 120.95
  L 166.49 121.05
  A 4.70 4.70 0.0 0 0 171.19 125.75
  L 349.55 125.75
  A 4.70 4.70 0.0 0 0 354.25 121.05
  L 354.25 120.95"
/>
<path stroke="#80a3c5" vector-effect="non-scaling-stroke" d="
  M 244.32 164.43
  L 240.48 160.50
  A 0.69 0.68 -57.6 0 1 240.33 159.80
  C 246.00 143.10 217.36 142.86 223.01 160.25
  A 0.81 0.79 59.0 0 1 222.82 161.06
  L 216.07 167.80
  Q 215.69 168.19 215.18 168.00
  Q 212.65 167.09 210.16 168.10
  Q 209.58 168.33 209.23 167.82
  L 201.80 156.89
  Q 201.48 156.43 201.74 155.93
  C 205.35 148.82 202.10 141.34 194.08 140.96
  C 181.97 140.40 181.15 160.64 195.54 159.65
  Q 196.10 159.62 196.41 160.07
  L 204.37 171.64
  Q 204.67 172.07 204.49 172.57
  Q 200.99 182.23 210.61 185.80
  C 218.98 188.91 224.22 179.51 221.00 172.38
  Q 220.76 171.86 221.17 171.46
  L 227.20 165.42
  Q 227.56 165.06 228.04 165.24
  Q 231.76 166.63 235.47 165.20
  A 0.99 0.98 56.4 0 1 236.50 165.41
  L 240.96 169.74
  A 0.93 0.93 0.0 0 1 241.24 170.47
  C 240.23 184.65 260.25 185.35 259.79 170.27
  Q 259.77 169.84 260.11 169.57
  L 276.27 156.76
  Q 276.68 156.44 277.14 156.69
  C 288.85 163.23 297.01 145.01 286.10 140.39
  C 278.40 137.13 271.34 142.82 272.85 151.00
  Q 272.94 151.51 272.54 151.83
  L 256.50 164.51
  Q 256.10 164.82 255.68 164.54
  Q 250.44 161.12 245.16 164.52
  Q 244.70 164.81 244.32 164.43"
/>
<path stroke="#80a3c5" vector-effect="non-scaling-stroke" d="
  M 252.98 194.25
  A 2.74 2.74 0.0 0 0 250.24 191.51
  L 187.98 191.51
  A 2.74 2.74 0.0 0 0 185.24 194.25
  L 185.24 195.01
  A 2.74 2.74 0.0 0 0 187.98 197.75
  L 250.24 197.75
  A 2.74 2.74 0.0 0 0 252.98 195.01
  L 252.98 194.25"
/>
<path stroke="#80a3c5" vector-effect="non-scaling-stroke" d="
  M 252.98 206.80
  A 2.79 2.79 0.0 0 0 250.19 204.01
  L 188.03 204.01
  A 2.79 2.79 0.0 0 0 185.24 206.80
  L 185.24 207.46
  A 2.79 2.79 0.0 0 0 188.03 210.25
  L 250.19 210.25
  A 2.79 2.79 0.0 0 0 252.98 207.46
  L 252.98 206.80"
/>
<path stroke="#80a3c5" vector-effect="non-scaling-stroke" d="
  M 253.00 219.78
  A 3.03 3.03 0.0 0 0 249.97 216.75
  L 188.25 216.75
  A 3.03 3.03 0.0 0 0 185.22 219.78
  L 185.22 219.96
  A 3.03 3.03 0.0 0 0 188.25 222.99
  L 249.97 222.99
  A 3.03 3.03 0.0 0 0 253.00 219.96
  L 253.00 219.78"
/>
<path stroke="#80a3c5" vector-effect="non-scaling-stroke" d="
  M 253.00 232.23
  A 2.98 2.98 0.0 0 0 250.02 229.25
  L 188.20 229.25
  A 2.98 2.98 0.0 0 0 185.22 232.23
  L 185.22 232.51
  A 2.98 2.98 0.0 0 0 188.20 235.49
  L 250.02 235.49
  A 2.98 2.98 0.0 0 0 253.00 232.51
  L 253.00 232.23"
/>
<path stroke="#80a3c5" vector-effect="non-scaling-stroke" d="
  M 285.00 148.69
  A 3.17 3.17 0.0 0 0 281.83 145.52
  A 3.17 3.17 0.0 0 0 278.66 148.69
  A 3.17 3.17 0.0 0 0 281.83 151.86
  A 3.17 3.17 0.0 0 0 285.00 148.69"
/>
<path stroke="#80a3c5" vector-effect="non-scaling-stroke" d="
  M 197.18 150.27
  A 3.17 3.17 0.0 0 0 194.01 147.10
  A 3.17 3.17 0.0 0 0 190.84 150.27
  A 3.17 3.17 0.0 0 0 194.01 153.44
  A 3.17 3.17 0.0 0 0 197.18 150.27"
/>
<path stroke="#80a3c5" vector-effect="non-scaling-stroke" d="
  M 234.83 156.54
  A 3.18 3.18 0.0 0 0 231.65 153.36
  A 3.18 3.18 0.0 0 0 228.47 156.54
  A 3.18 3.18 0.0 0 0 231.65 159.72
  A 3.18 3.18 0.0 0 0 234.83 156.54"
/>
<path stroke="#80a3c5" vector-effect="non-scaling-stroke" d="
  M 253.64 172.21
  A 3.16 3.16 0.0 0 0 250.48 169.05
  A 3.16 3.16 0.0 0 0 247.32 172.21
  A 3.16 3.16 0.0 0 0 250.48 175.37
  A 3.16 3.16 0.0 0 0 253.64 172.21"
/>
<path stroke="#80a3c5" vector-effect="non-scaling-stroke" d="
  M 215.97 176.93
  A 3.18 3.18 0.0 0 0 212.79 173.75
  A 3.18 3.18 0.0 0 0 209.61 176.93
  A 3.18 3.18 0.0 0 0 212.79 180.11
  A 3.18 3.18 0.0 0 0 215.97 176.93"
/>
<path stroke="#80a3c5" vector-effect="non-scaling-stroke" d="
  M 514.34 209.59
  C 505.09 215.92 503.86 233.94 514.58 239.70
  C 521.28 243.30 534.83 243.50 539.20 235.92
  C 543.12 229.14 543.71 214.50 535.68 209.56
  C 529.91 206.02 520.21 205.57 514.34 209.59"
/>
<path stroke="#80a3c5" vector-effect="non-scaling-stroke" d="
  M 301.41 184.17
  C 300.77 199.21 319.57 200.82 323.16 187.00
  A 0.55 0.55 0.0 0 0 322.47 186.34
  Q 314.11 188.80 308.35 182.60
  Q 307.98 182.21 307.43 182.21
  L 301.95 182.27
  Q 301.46 182.27 301.38 182.76
  Q 301.34 182.99 301.35 183.21
  Q 301.41 184.16 301.41 184.17"
/>
<path stroke="#80a3c5" vector-effect="non-scaling-stroke" d="
  M 786.69 214.13
  Q 785.53 215.39 787.19 215.80
  C 793.48 217.32 805.86 219.62 811.44 214.92
  A 1.36 1.34 77.7 0 0 811.89 214.21
  C 814.21 205.32 796.53 207.56 792.37 209.65
  Q 789.42 211.14 786.69 214.13"
/>
<path stroke="#80a3c5" vector-effect="non-scaling-stroke" d="
  M 1001.50 214.49
  A 0.78 0.78 0.0 0 0 1001.92 215.75
  Q 1009.81 217.58 1018.50 217.72
  C 1021.18 217.76 1029.17 215.88 1026.94 211.15
  C 1024.80 206.62 1014.50 207.55 1010.80 208.44
  Q 1005.52 209.71 1001.50 214.49"
/>
<path stroke="#80a3c5" vector-effect="non-scaling-stroke" d="
  M 314.02 279.46
  Q 314.98 280.68 315.21 282.01
  Q 317.08 293.05 319.20 304.05
  Q 319.29 304.52 319.77 304.51
  L 323.94 304.49
  Q 324.61 304.49 324.68 303.82
  L 328.74 265.83
  Q 328.80 265.25 328.21 265.25
  L 295.99 265.25
  Q 295.49 265.25 295.54 265.75
  L 299.28 303.81
  Q 299.35 304.50 300.04 304.50
  L 304.48 304.50
  Q 305.08 304.50 305.17 303.90
  Q 307.75 285.95 308.79 280.99
  Q 309.46 277.79 313.36 279.00
  Q 313.76 279.13 314.02 279.46"
/>
</g>
<path fill="#ffffff" d="
  M 0.00 0.00
  L 1235.00 0.00
  L 1235.00 405.00
  L 0.00 405.00
  L 0.00 0.00
  Z
  M 280.37 189.46
  C 288.88 192.72 289.87 200.55 292.59 208.56
  Q 292.78 209.11 293.28 208.81
  L 298.83 205.49
  Q 299.31 205.20 298.92 204.80
  C 297.36 203.19 295.17 201.75 293.95 200.20
  C 287.71 192.27 289.35 186.60 288.89 177.36
  C 288.75 174.42 288.04 168.07 290.32 165.81
  Q 305.62 150.58 324.86 159.23
  C 331.32 162.13 335.83 166.11 335.81 173.75
  C 335.77 185.84 336.46 197.13 325.02 204.70
  A 0.46 0.46 0.0 0 0 325.04 205.49
  C 331.89 209.54 335.33 212.10 339.76 219.39
  Q 343.75 225.96 347.88 232.37
  A 0.20 0.20 0.0 0 0 348.25 232.26
  L 348.25 132.74
  Q 348.25 132.03 348.95 132.02
  C 361.53 131.83 365.36 115.23 353.84 111.00
  Q 351.09 109.98 344.03 109.99
  Q 258.95 110.01 173.86 110.01
  C 168.42 110.01 164.90 110.56 161.98 114.95
  C 156.70 122.88 162.85 132.08 171.94 132.00
  Q 172.50 132.00 172.50 132.56
  Q 172.45 175.19 172.75 217.82
  C 172.79 224.90 172.21 235.42 172.68 244.27
  C 172.78 246.07 173.56 248.00 175.50 248.00
  Q 227.76 248.01 280.03 248.00
  A 0.72 0.72 0.0 0 0 280.75 247.28
  L 280.75 245.23
  Q 280.75 244.60 280.13 244.50
  C 271.01 243.10 268.19 237.76 265.86 228.93
  Q 263.34 219.40 260.69 209.87
  C 258.17 200.82 261.26 192.23 270.46 189.31
  Q 275.67 187.66 280.37 189.46
  Z
  M 541.72 193.48
  C 525.75 178.12 499.63 186.53 489.78 203.66
  C 483.28 214.95 482.07 229.31 487.23 241.27
  C 501.18 273.63 554.65 270.02 563.49 235.99
  Q 565.01 230.14 565.01 216.36
  Q 565.01 186.32 565.00 156.26
  Q 565.00 155.75 564.49 155.75
  L 542.75 155.75
  Q 542.25 155.75 542.25 156.25
  L 542.25 193.25
  Q 542.25 193.98 541.72 193.48
  Z
  M 295.24 169.49
  A 1.72 1.68 62.7 0 0 294.79 170.95
  Q 295.77 177.13 295.15 183.75
  C 292.91 207.84 330.86 209.51 329.33 182.28
  C 329.04 176.98 331.73 171.36 326.61 167.30
  C 317.03 159.70 303.95 160.37 295.24 169.49
  Z
  M 431.49 241.50
  A 0.49 0.49 0.0 0 1 431.00 241.01
  L 431.00 227.24
  A 0.49 0.49 0.0 0 1 431.49 226.75
  L 468.01 226.75
  A 0.49 0.49 0.0 0 0 468.50 226.26
  L 468.50 205.99
  A 0.49 0.49 0.0 0 0 468.01 205.50
  L 431.49 205.50
  A 0.49 0.49 0.0 0 1 431.00 205.01
  L 431.00 190.99
  A 0.49 0.49 0.0 0 1 431.49 190.50
  L 477.26 190.50
  A 0.49 0.49 0.0 0 0 477.75 190.01
  L 477.75 169.74
  A 0.49 0.49 0.0 0 0 477.26 169.25
  L 408.74 169.25
  A 0.49 0.49 0.0 0 0 408.25 169.74
  L 408.25 262.26
  A 0.49 0.49 0.0 0 0 408.74 262.75
  L 477.26 262.75
  A 0.49 0.49 0.0 0 0 477.75 262.26
  L 477.75 241.99
  A 0.49 0.49 0.0 0 0 477.26 241.50
  L 431.49 241.50
  Z
  M 738.52 169.25
  A 0.33 0.33 0.0 0 0 738.21 169.47
  L 714.70 235.89
  A 0.33 0.33 0.0 0 1 714.08 235.89
  L 690.41 169.47
  A 0.33 0.33 0.0 0 0 690.10 169.25
  L 665.98 169.25
  A 0.33 0.33 0.0 0 0 665.67 169.70
  L 702.83 262.54
  A 0.33 0.33 0.0 0 0 703.13 262.75
  L 725.57 262.75
  A 0.33 0.33 0.0 0 0 725.87 262.54
  L 763.12 169.70
  A 0.33 0.33 0.0 0 0 762.81 169.25
  L 738.52 169.25
  Z
  M 785.57 232.13
  Q 801.00 238.00 816.81 232.93
  C 828.68 229.12 837.54 219.65 834.68 206.34
  C 830.39 186.36 804.31 182.81 788.01 187.59
  C 772.32 192.20 762.90 204.08 761.16 220.00
  C 758.36 245.71 776.58 263.63 801.50 263.74
  Q 815.35 263.79 828.70 260.45
  Q 829.25 260.31 829.25 259.75
  L 829.25 239.77
  Q 829.25 239.28 828.77 239.36
  Q 817.08 241.20 805.25 241.54
  C 797.61 241.76 788.72 240.56 785.13 232.60
  Q 784.78 231.82 785.57 232.13
  Z
  M 894.52 186.12
  C 870.22 182.44 846.91 197.64 846.81 223.27
  Q 846.71 249.94 846.76 262.24
  A 0.51 0.51 0.0 0 0 847.27 262.75
  L 868.99 262.75
  Q 869.60 262.75 869.59 262.14
  Q 869.29 244.11 869.66 226.10
  C 869.98 210.88 880.60 205.43 894.72 208.42
  A 0.44 0.44 0.0 0 0 895.25 207.99
  L 895.25 186.98
  Q 895.25 186.23 894.52 186.12
  Z
  M 902.39 260.50
  C 920.43 264.23 968.03 270.12 969.35 239.99
  C 969.93 226.62 961.21 219.43 948.99 216.79
  Q 937.89 214.39 926.81 212.01
  Q 924.70 211.55 923.98 209.76
  A 0.69 0.69 0.0 0 1 924.18 208.97
  Q 926.52 207.06 928.00 206.99
  C 940.77 206.34 952.67 207.28 965.08 210.29
  Q 965.50 210.40 965.50 209.96
  L 965.50 189.54
  Q 965.50 189.09 965.05 188.99
  C 947.07 184.91 903.10 179.45 902.38 209.29
  C 902.10 221.21 910.47 230.03 921.74 232.09
  C 929.31 233.47 940.35 234.84 946.96 238.54
  A 0.99 0.98 9.9 0 1 947.45 239.23
  Q 947.83 241.58 945.76 241.86
  Q 924.83 244.66 902.22 239.14
  Q 901.75 239.03 901.75 239.52
  L 901.75 259.71
  Q 901.75 260.37 902.39 260.50
  Z
  M 1000.75 232.19
  Q 1017.99 238.63 1035.11 231.63
  C 1042.77 228.50 1049.35 222.18 1050.11 213.52
  C 1052.18 190.12 1024.75 182.39 1006.56 186.57
  C 984.97 191.53 973.95 208.82 976.39 230.29
  C 978.80 251.43 996.12 263.61 1016.50 263.71
  Q 1030.35 263.77 1043.82 260.51
  Q 1044.25 260.41 1044.25 259.97
  L 1044.25 239.81
  Q 1044.25 239.27 1043.72 239.35
  Q 1035.90 240.64 1028.01 241.12
  C 1018.90 241.66 1004.76 243.19 1000.32 232.63
  Q 1000.02 231.92 1000.75 232.19
  Z
  M 579.36 227.54
  C 581.01 275.24 655.39 275.72 656.89 226.72
  Q 657.50 206.80 657.18 186.72
  Q 657.17 186.25 656.70 186.25
  L 634.77 186.25
  A 0.55 0.55 0.0 0 0 634.22 186.80
  Q 634.36 206.64 634.09 226.05
  C 633.95 236.17 627.38 242.45 617.36 242.23
  C 605.46 241.96 602.04 232.28 602.03 221.80
  Q 601.99 204.30 602.00 186.76
  Q 602.00 186.25 601.49 186.25
  L 579.78 186.25
  Q 579.33 186.25 579.32 186.70
  Q 579.05 218.48 579.36 227.54
  Z
  M 286.97 238.78
  Q 287.07 249.01 286.97 259.26
  C 286.95 261.20 289.09 263.37 289.34 266.13
  Q 290.95 283.59 293.07 300.99
  Q 293.57 305.09 294.83 308.56
  A 2.18 2.18 0.0 0 0 296.86 309.99
  C 304.86 310.05 311.05 312.58 311.77 301.51
  Q 311.79 301.23 312.06 301.28
  Q 312.19 301.30 312.29 301.38
  Q 312.43 301.50 312.45 301.79
  C 313.13 312.53 319.25 310.02 326.77 309.99
  Q 329.11 309.98 329.67 307.71
  C 333.16 293.48 333.57 277.83 335.07 263.04
  A 1.81 1.81 0.0 0 1 337.92 261.74
  C 344.49 266.36 352.61 260.40 352.05 252.92
  Q 351.86 250.43 349.19 246.19
  Q 341.50 233.98 333.81 221.76
  C 325.32 208.27 310.04 205.17 297.11 213.88
  C 295.17 215.18 293.85 217.31 292.00 218.80
  A 1.99 1.98 61.3 0 1 288.87 217.88
  Q 286.56 211.00 284.31 203.69
  Q 282.83 198.87 280.88 197.05
  C 277.55 193.95 271.59 193.92 268.52 197.66
  C 265.62 201.20 265.66 204.18 266.92 208.85
  Q 269.93 220.03 273.09 231.15
  C 275.06 238.09 279.73 238.30 286.43 238.25
  Q 286.97 238.24 286.97 238.78
  Z"
/>
<path fill="#00478a" d="
  M 270.46 189.31
  C 261.26 192.23 258.17 200.82 260.69 209.87
  Q 263.34 219.40 265.86 228.93
  C 268.19 237.76 271.01 243.10 280.13 244.50
  Q 280.75 244.60 280.75 245.23
  L 280.75 247.28
  A 0.72 0.72 0.0 0 1 280.03 248.00
  Q 227.76 248.01 175.50 248.00
  C 173.56 248.00 172.78 246.07 172.68 244.27
  C 172.21 235.42 172.79 224.90 172.75 217.82
  Q 172.45 175.19 172.50 132.56
  Q 172.50 132.00 171.94 132.00
  C 162.85 132.08 156.70 122.88 161.98 114.95
  C 164.90 110.56 168.42 110.01 173.86 110.01
  Q 258.95 110.01 344.03 109.99
  Q 351.09 109.98 353.84 111.00
  C 365.36 115.23 361.53 131.83 348.95 132.02
  Q 348.25 132.03 348.25 132.74
  L 348.25 232.26
  A 0.20 0.20 0.0 0 1 347.88 232.37
  Q 343.75 225.96 339.76 219.39
  C 335.33 212.10 331.89 209.54 325.04 205.49
  A 0.46 0.46 0.0 0 1 325.02 204.70
  C 336.46 197.13 335.77 185.84 335.81 173.75
  C 335.83 166.11 331.32 162.13 324.86 159.23
  Q 305.62 150.58 290.32 165.81
  C 288.04 168.07 288.75 174.42 288.89 177.36
  C 289.35 186.60 287.71 192.27 293.95 200.20
  C 295.17 201.75 297.36 203.19 298.92 204.80
  Q 299.31 205.20 298.83 205.49
  L 293.28 208.81
  Q 292.78 209.11 292.59 208.56
  C 289.87 200.55 288.88 192.72 280.37 189.46
  Q 275.67 187.66 270.46 189.31
  Z
  M 354.25 120.95
  A 4.70 4.70 0.0 0 0 349.55 116.25
  L 171.19 116.25
  A 4.70 4.70 0.0 0 0 166.49 120.95
  L 166.49 121.05
  A 4.70 4.70 0.0 0 0 171.19 125.75
  L 349.55 125.75
  A 4.70 4.70 0.0 0 0 354.25 121.05
  L 354.25 120.95
  Z
  M 244.32 164.43
  L 240.48 160.50
  A 0.69 0.68 -57.6 0 1 240.33 159.80
  C 246.00 143.10 217.36 142.86 223.01 160.25
  A 0.81 0.79 59.0 0 1 222.82 161.06
  L 216.07 167.80
  Q 215.69 168.19 215.18 168.00
  Q 212.65 167.09 210.16 168.10
  Q 209.58 168.33 209.23 167.82
  L 201.80 156.89
  Q 201.48 156.43 201.74 155.93
  C 205.35 148.82 202.10 141.34 194.08 140.96
  C 181.97 140.40 181.15 160.64 195.54 159.65
  Q 196.10 159.62 196.41 160.07
  L 204.37 171.64
  Q 204.67 172.07 204.49 172.57
  Q 200.99 182.23 210.61 185.80
  C 218.98 188.91 224.22 179.51 221.00 172.38
  Q 220.76 171.86 221.17 171.46
  L 227.20 165.42
  Q 227.56 165.06 228.04 165.24
  Q 231.76 166.63 235.47 165.20
  A 0.99 0.98 56.4 0 1 236.50 165.41
  L 240.96 169.74
  A 0.93 0.93 0.0 0 1 241.24 170.47
  C 240.23 184.65 260.25 185.35 259.79 170.27
  Q 259.77 169.84 260.11 169.57
  L 276.27 156.76
  Q 276.68 156.44 277.14 156.69
  C 288.85 163.23 297.01 145.01 286.10 140.39
  C 278.40 137.13 271.34 142.82 272.85 151.00
  Q 272.94 151.51 272.54 151.83
  L 256.50 164.51
  Q 256.10 164.82 255.68 164.54
  Q 250.44 161.12 245.16 164.52
  Q 244.70 164.81 244.32 164.43
  Z
  M 252.98 194.25
  A 2.74 2.74 0.0 0 0 250.24 191.51
  L 187.98 191.51
  A 2.74 2.74 0.0 0 0 185.24 194.25
  L 185.24 195.01
  A 2.74 2.74 0.0 0 0 187.98 197.75
  L 250.24 197.75
  A 2.74 2.74 0.0 0 0 252.98 195.01
  L 252.98 194.25
  Z
  M 252.98 206.80
  A 2.79 2.79 0.0 0 0 250.19 204.01
  L 188.03 204.01
  A 2.79 2.79 0.0 0 0 185.24 206.80
  L 185.24 207.46
  A 2.79 2.79 0.0 0 0 188.03 210.25
  L 250.19 210.25
  A 2.79 2.79 0.0 0 0 252.98 207.46
  L 252.98 206.80
  Z
  M 253.00 219.78
  A 3.03 3.03 0.0 0 0 249.97 216.75
  L 188.25 216.75
  A 3.03 3.03 0.0 0 0 185.22 219.78
  L 185.22 219.96
  A 3.03 3.03 0.0 0 0 188.25 222.99
  L 249.97 222.99
  A 3.03 3.03 0.0 0 0 253.00 219.96
  L 253.00 219.78
  Z
  M 253.00 232.23
  A 2.98 2.98 0.0 0 0 250.02 229.25
  L 188.20 229.25
  A 2.98 2.98 0.0 0 0 185.22 232.23
  L 185.22 232.51
  A 2.98 2.98 0.0 0 0 188.20 235.49
  L 250.02 235.49
  A 2.98 2.98 0.0 0 0 253.00 232.51
  L 253.00 232.23
  Z"
/>
<rect fill="#ffffff" x="166.49" y="116.25" width="187.76" height="9.50" rx="4.70"/>
<path fill="#ffffff" d="
  M 245.16 164.52
  Q 250.44 161.12 255.68 164.54
  Q 256.10 164.82 256.50 164.51
  L 272.54 151.83
  Q 272.94 151.51 272.85 151.00
  C 271.34 142.82 278.40 137.13 286.10 140.39
  C 297.01 145.01 288.85 163.23 277.14 156.69
  Q 276.68 156.44 276.27 156.76
  L 260.11 169.57
  Q 259.77 169.84 259.79 170.27
  C 260.25 185.35 240.23 184.65 241.24 170.47
  A 0.93 0.93 0.0 0 0 240.96 169.74
  L 236.50 165.41
  A 0.99 0.98 56.4 0 0 235.47 165.20
  Q 231.76 166.63 228.04 165.24
  Q 227.56 165.06 227.20 165.42
  L 221.17 171.46
  Q 220.76 171.86 221.00 172.38
  C 224.22 179.51 218.98 188.91 210.61 185.80
  Q 200.99 182.23 204.49 172.57
  Q 204.67 172.07 204.37 171.64
  L 196.41 160.07
  Q 196.10 159.62 195.54 159.65
  C 181.15 160.64 181.97 140.40 194.08 140.96
  C 202.10 141.34 205.35 148.82 201.74 155.93
  Q 201.48 156.43 201.80 156.89
  L 209.23 167.82
  Q 209.58 168.33 210.16 168.10
  Q 212.65 167.09 215.18 168.00
  Q 215.69 168.19 216.07 167.80
  L 222.82 161.06
  A 0.81 0.79 59.0 0 0 223.01 160.25
  C 217.36 142.86 246.00 143.10 240.33 159.80
  A 0.69 0.68 -57.6 0 0 240.48 160.50
  L 244.32 164.43
  Q 244.70 164.81 245.16 164.52
  Z
  M 285.00 148.69
  A 3.17 3.17 0.0 0 0 281.83 145.52
  A 3.17 3.17 0.0 0 0 278.66 148.69
  A 3.17 3.17 0.0 0 0 281.83 151.86
  A 3.17 3.17 0.0 0 0 285.00 148.69
  Z
  M 197.18 150.27
  A 3.17 3.17 0.0 0 0 194.01 147.10
  A 3.17 3.17 0.0 0 0 190.84 150.27
  A 3.17 3.17 0.0 0 0 194.01 153.44
  A 3.17 3.17 0.0 0 0 197.18 150.27
  Z
  M 234.83 156.54
  A 3.18 3.18 0.0 0 0 231.65 153.36
  A 3.18 3.18 0.0 0 0 228.47 156.54
  A 3.18 3.18 0.0 0 0 231.65 159.72
  A 3.18 3.18 0.0 0 0 234.83 156.54
  Z
  M 253.64 172.21
  A 3.16 3.16 0.0 0 0 250.48 169.05
  A 3.16 3.16 0.0 0 0 247.32 172.21
  A 3.16 3.16 0.0 0 0 250.48 175.37
  A 3.16 3.16 0.0 0 0 253.64 172.21
  Z
  M 215.97 176.93
  A 3.18 3.18 0.0 0 0 212.79 173.75
  A 3.18 3.18 0.0 0 0 209.61 176.93
  A 3.18 3.18 0.0 0 0 212.79 180.11
  A 3.18 3.18 0.0 0 0 215.97 176.93
  Z"
/>
<circle fill="#00478a" cx="281.83" cy="148.69" r="3.17"/>
<circle fill="#00478a" cx="194.01" cy="150.27" r="3.17"/>
<circle fill="#00478a" cx="231.65" cy="156.54" r="3.18"/>
<path fill="#00478a" d="
  M 542.25 193.25
  L 542.25 156.25
  Q 542.25 155.75 542.75 155.75
  L 564.49 155.75
  Q 565.00 155.75 565.00 156.26
  Q 565.01 186.32 565.01 216.36
  Q 565.01 230.14 563.49 235.99
  C 554.65 270.02 501.18 273.63 487.23 241.27
  C 482.07 229.31 483.28 214.95 489.78 203.66
  C 499.63 186.53 525.75 178.12 541.72 193.48
  Q 542.25 193.98 542.25 193.25
  Z
  M 514.34 209.59
  C 505.09 215.92 503.86 233.94 514.58 239.70
  C 521.28 243.30 534.83 243.50 539.20 235.92
  C 543.12 229.14 543.71 214.50 535.68 209.56
  C 529.91 206.02 520.21 205.57 514.34 209.59
  Z"
/>
<path fill="#00478a" d="
  M 295.24 169.49
  C 303.95 160.37 317.03 159.70 326.61 167.30
  C 331.73 171.36 329.04 176.98 329.33 182.28
  C 330.86 209.51 292.91 207.84 295.15 183.75
  Q 295.77 177.13 294.79 170.95
  A 1.72 1.68 62.7 0 1 295.24 169.49
  Z
  M 301.41 184.17
  C 300.77 199.21 319.57 200.82 323.16 187.00
  A 0.55 0.55 0.0 0 0 322.47 186.34
  Q 314.11 188.80 308.35 182.60
  Q 307.98 182.21 307.43 182.21
  L 301.95 182.27
  Q 301.46 182.27 301.38 182.76
  Q 301.34 182.99 301.35 183.21
  Q 301.41 184.16 301.41 184.17
  Z"
/>
<circle fill="#00478a" cx="250.48" cy="172.21" r="3.16"/>
<path fill="#00478a" d="
  M 431.49 241.50
  L 477.26 241.50
  A 0.49 0.49 0.0 0 1 477.75 241.99
  L 477.75 262.26
  A 0.49 0.49 0.0 0 1 477.26 262.75
  L 408.74 262.75
  A 0.49 0.49 0.0 0 1 408.25 262.26
  L 408.25 169.74
  A 0.49 0.49 0.0 0 1 408.74 169.25
  L 477.26 169.25
  A 0.49 0.49 0.0 0 1 477.75 169.74
  L 477.75 190.01
  A 0.49 0.49 0.0 0 1 477.26 190.50
  L 431.49 190.50
  A 0.49 0.49 0.0 0 0 431.00 190.99
  L 431.00 205.01
  A 0.49 0.49 0.0 0 0 431.49 205.50
  L 468.01 205.50
  A 0.49 0.49 0.0 0 1 468.50 205.99
  L 468.50 226.26
  A 0.49 0.49 0.0 0 1 468.01 226.75
  L 431.49 226.75
  A 0.49 0.49 0.0 0 0 431.00 227.24
  L 431.00 241.01
  A 0.49 0.49 0.0 0 0 431.49 241.50
  Z"
/>
<path fill="#00478a" d="
  M 738.52 169.25
  L 762.81 169.25
  A 0.33 0.33 0.0 0 1 763.12 169.70
  L 725.87 262.54
  A 0.33 0.33 0.0 0 1 725.57 262.75
  L 703.13 262.75
  A 0.33 0.33 0.0 0 1 702.83 262.54
  L 665.67 169.70
  A 0.33 0.33 0.0 0 1 665.98 169.25
  L 690.10 169.25
  A 0.33 0.33 0.0 0 1 690.41 169.47
  L 714.08 235.89
  A 0.33 0.33 0.0 0 0 714.70 235.89
  L 738.21 169.47
  A 0.33 0.33 0.0 0 1 738.52 169.25
  Z"
/>
<circle fill="#00478a" cx="212.79" cy="176.93" r="3.18"/>
<path fill="#ffffff" d="
  M 301.35 183.21
  Q 301.34 182.99 301.38 182.76
  Q 301.46 182.27 301.95 182.27
  L 307.43 182.21
  Q 307.98 182.21 308.35 182.60
  Q 314.11 188.80 322.47 186.34
  A 0.55 0.55 0.0 0 1 323.16 187.00
  C 319.57 200.82 300.77 199.21 301.41 184.17
  Q 301.41 184.16 301.35 183.21
  Z"
/>
<path fill="#00478a" d="
  M 785.13 232.60
  C 788.72 240.56 797.61 241.76 805.25 241.54
  Q 817.08 241.20 828.77 239.36
  Q 829.25 239.28 829.25 239.77
  L 829.25 259.75
  Q 829.25 260.31 828.70 260.45
  Q 815.35 263.79 801.50 263.74
  C 776.58 263.63 758.36 245.71 761.16 220.00
  C 762.90 204.08 772.32 192.20 788.01 187.59
  C 804.31 182.81 830.39 186.36 834.68 206.34
  C 837.54 219.65 828.68 229.12 816.81 232.93
  Q 801.00 238.00 785.57 232.13
  Q 784.78 231.82 785.13 232.60
  Z
  M 786.69 214.13
  Q 785.53 215.39 787.19 215.80
  C 793.48 217.32 805.86 219.62 811.44 214.92
  A 1.36 1.34 77.7 0 0 811.89 214.21
  C 814.21 205.32 796.53 207.56 792.37 209.65
  Q 789.42 211.14 786.69 214.13
  Z"
/>
<path fill="#00478a" d="
  M 846.81 223.27
  C 846.91 197.64 870.22 182.44 894.52 186.12
  Q 895.25 186.23 895.25 186.98
  L 895.25 207.99
  A 0.44 0.44 0.0 0 1 894.72 208.42
  C 880.60 205.43 869.98 210.88 869.66 226.10
  Q 869.29 244.11 869.59 262.14
  Q 869.60 262.75 868.99 262.75
  L 847.27 262.75
  A 0.51 0.51 0.0 0 1 846.76 262.24
  Q 846.71 249.94 846.81 223.27
  Z"
/>
<path fill="#00478a" d="
  M 902.39 260.50
  Q 901.75 260.37 901.75 259.71
  L 901.75 239.52
  Q 901.75 239.03 902.22 239.14
  Q 924.83 244.66 945.76 241.86
  Q 947.83 241.58 947.45 239.23
  A 0.99 0.98 9.9 0 0 946.96 238.54
  C 940.35 234.84 929.31 233.47 921.74 232.09
  C 910.47 230.03 902.10 221.21 902.38 209.29
  C 903.10 179.45 947.07 184.91 965.05 188.99
  Q 965.50 189.09 965.50 189.54
  L 965.50 209.96
  Q 965.50 210.40 965.08 210.29
  C 952.67 207.28 940.77 206.34 928.00 206.99
  Q 926.52 207.06 924.18 208.97
  A 0.69 0.69 0.0 0 0 923.98 209.76
  Q 924.70 211.55 926.81 212.01
  Q 937.89 214.39 948.99 216.79
  C 961.21 219.43 969.93 226.62 969.35 239.99
  C 968.03 270.12 920.43 264.23 902.39 260.50
  Z"
/>
<path fill="#00478a" d="
  M 1000.32 232.63
  C 1004.76 243.19 1018.90 241.66 1028.01 241.12
  Q 1035.90 240.64 1043.72 239.35
  Q 1044.25 239.27 1044.25 239.81
  L 1044.25 259.97
  Q 1044.25 260.41 1043.82 260.51
  Q 1030.35 263.77 1016.50 263.71
  C 996.12 263.61 978.80 251.43 976.39 230.29
  C 973.95 208.82 984.97 191.53 1006.56 186.57
  C 1024.75 182.39 1052.18 190.12 1050.11 213.52
  C 1049.35 222.18 1042.77 228.50 1035.11 231.63
  Q 1017.99 238.63 1000.75 232.19
  Q 1000.02 231.92 1000.32 232.63
  Z
  M 1001.50 214.49
  A 0.78 0.78 0.0 0 0 1001.92 215.75
  Q 1009.81 217.58 1018.50 217.72
  C 1021.18 217.76 1029.17 215.88 1026.94 211.15
  C 1024.80 206.62 1014.50 207.55 1010.80 208.44
  Q 1005.52 209.71 1001.50 214.49
  Z"
/>
<path fill="#00478a" d="
  M 656.89 226.72
  C 655.39 275.72 581.01 275.24 579.36 227.54
  Q 579.05 218.48 579.32 186.70
  Q 579.33 186.25 579.78 186.25
  L 601.49 186.25
  Q 602.00 186.25 602.00 186.76
  Q 601.99 204.30 602.03 221.80
  C 602.04 232.28 605.46 241.96 617.36 242.23
  C 627.38 242.45 633.95 236.17 634.09 226.05
  Q 634.36 206.64 634.22 186.80
  A 0.55 0.55 0.0 0 1 634.77 186.25
  L 656.70 186.25
  Q 657.17 186.25 657.18 186.72
  Q 657.50 206.80 656.89 226.72
  Z"
/>
<rect fill="#ffffff" x="185.24" y="191.51" width="67.74" height="6.24" rx="2.74"/>
<path fill="#00478a" d="
  M 286.43 238.25
  C 279.73 238.30 275.06 238.09 273.09 231.15
  Q 269.93 220.03 266.92 208.85
  C 265.66 204.18 265.62 201.20 268.52 197.66
  C 271.59 193.92 277.55 193.95 280.88 197.05
  Q 282.83 198.87 284.31 203.69
  Q 286.56 211.00 288.87 217.88
  A 1.99 1.98 61.3 0 0 292.00 218.80
  C 293.85 217.31 295.17 215.18 297.11 213.88
  C 310.04 205.17 325.32 208.27 333.81 221.76
  Q 341.50 233.98 349.19 246.19
  Q 351.86 250.43 352.05 252.92
  C 352.61 260.40 344.49 266.36 337.92 261.74
  A 1.81 1.81 0.0 0 0 335.07 263.04
  C 333.57 277.83 333.16 293.48 329.67 307.71
  Q 329.11 309.98 326.77 309.99
  C 319.25 310.02 313.13 312.53 312.45 301.79
  Q 312.43 301.50 312.29 301.38
  Q 312.19 301.30 312.06 301.28
  Q 311.79 301.23 311.77 301.51
  C 311.05 312.58 304.86 310.05 296.86 309.99
  A 2.18 2.18 0.0 0 1 294.83 308.56
  Q 293.57 305.09 293.07 300.99
  Q 290.95 283.59 289.34 266.13
  C 289.09 263.37 286.95 261.20 286.97 259.26
  Q 287.07 249.01 286.97 238.78
  Q 286.97 238.24 286.43 238.25
  Z
  M 314.02 279.46
  Q 314.98 280.68 315.21 282.01
  Q 317.08 293.05 319.20 304.05
  Q 319.29 304.52 319.77 304.51
  L 323.94 304.49
  Q 324.61 304.49 324.68 303.82
  L 328.74 265.83
  Q 328.80 265.25 328.21 265.25
  L 295.99 265.25
  Q 295.49 265.25 295.54 265.75
  L 299.28 303.81
  Q 299.35 304.50 300.04 304.50
  L 304.48 304.50
  Q 305.08 304.50 305.17 303.90
  Q 307.75 285.95 308.79 280.99
  Q 309.46 277.79 313.36 279.00
  Q 313.76 279.13 314.02 279.46
  Z"
/>
<rect fill="#ffffff" x="185.24" y="204.01" width="67.74" height="6.24" rx="2.79"/>
<path fill="#ffffff" d="
  M 514.34 209.59
  C 520.21 205.57 529.91 206.02 535.68 209.56
  C 543.71 214.50 543.12 229.14 539.20 235.92
  C 534.83 243.50 521.28 243.30 514.58 239.70
  C 503.86 233.94 505.09 215.92 514.34 209.59
  Z"
/>
<path fill="#ffffff" d="
  M 786.69 214.13
  Q 789.42 211.14 792.37 209.65
  C 796.53 207.56 814.21 205.32 811.89 214.21
  A 1.36 1.34 77.7 0 1 811.44 214.92
  C 805.86 219.62 793.48 217.32 787.19 215.80
  Q 785.53 215.39 786.69 214.13
  Z"
/>
<path fill="#ffffff" d="
  M 1001.50 214.49
  Q 1005.52 209.71 1010.80 208.44
  C 1014.50 207.55 1024.80 206.62 1026.94 211.15
  C 1029.17 215.88 1021.18 217.76 1018.50 217.72
  Q 1009.81 217.58 1001.92 215.75
  A 0.78 0.78 0.0 0 1 1001.50 214.49
  Z"
/>
<rect fill="#ffffff" x="185.22" y="216.75" width="67.78" height="6.24" rx="3.03"/>
<rect fill="#ffffff" x="185.22" y="229.25" width="67.78" height="6.24" rx="2.98"/>
<path fill="#ffffff" d="
  M 313.36 279.00
  Q 309.46 277.79 308.79 280.99
  Q 307.75 285.95 305.17 303.90
  Q 305.08 304.50 304.48 304.50
  L 300.04 304.50
  Q 299.35 304.50 299.28 303.81
  L 295.54 265.75
  Q 295.49 265.25 295.99 265.25
  L 328.21 265.25
  Q 328.80 265.25 328.74 265.83
  L 324.68 303.82
  Q 324.61 304.49 323.94 304.49
  L 319.77 304.51
  Q 319.29 304.52 319.20 304.05
  Q 317.08 293.05 315.21 282.01
  Q 314.98 280.68 314.02 279.46
  Q 313.76 279.13 313.36 279.00
  Z"
/>
</svg>
